<?xml version="1.0" encoding="UTF-8"?><svg id="Layer_2" xmlns="http://www.w3.org/2000/svg" viewBox="0 0 2957.32 487.37"><defs><style>.cls-1{fill:#fff;}.cls-1,.cls-2,.cls-3{stroke-width:0px;}.cls-2{fill:#46c34c;}.cls-2,.cls-3{fill-rule:evenodd;}.cls-3{fill:#7eff00;}</style></defs><g id="Layer_1-2"><path class="cls-2" d="m162.45,0c1.12,44.8-5.55,88.77-19.14,130.21C211.11,104.61,271.2,59.8,315.14,0h-152.68Z"/><path class="cls-3" d="m0,162.46C128.57,165.67,250.34,104.79,324.91,0c2.12,86.8-31.43,170.68-92.83,232.08-61.4,61.4-145.28,94.95-232.08,92.84v-162.46"/><path class="cls-2" d="m324.92,487.37c-1.12-44.56,5.47-88.29,18.91-129.53-67.4,25.54-127.15,70.1-170.9,129.53h151.99Z"/><path class="cls-3" d="m487.37,324.91c-128.57-3.22-250.34,57.67-324.91,162.46-2.12-86.81,31.43-170.69,92.83-232.08,61.4-61.4,145.28-94.95,232.08-92.83v162.46"/><path class="cls-1" d="m702.84,106.3h96.05l71.73,185.62,70.11-185.62h95.64v285.72h-79.43v-157.65l-53.9,157.65h-66.46l-54.31-158.87v158.87h-79.43V106.3Z"/><path class="cls-1" d="m1184.3,394.85c-67.28,0-115.5-44.17-115.5-116.72s47.42-116.31,115.5-116.31,114.69,43.36,114.69,113.88c0,6.08-.41,12.56-1.22,18.64h-150.36c1.62,26.34,15.81,36.88,33.64,36.88,15.4,0,23.91-8.51,28.37-17.83h84.7c-10.54,46.61-53.09,81.46-109.83,81.46Zm-36.47-139.01h70.11c0-20.26-15.81-31.21-34.04-31.21s-32.42,10.54-36.07,31.21Z"/><path class="cls-1" d="m1415.7,161.82c29.99,0,53.5,13.37,66.06,34.04v-103.75h79.84v299.9h-79.84v-31.61c-11.75,20.26-34.45,34.45-66.46,34.45-53.9,0-96.86-44.17-96.86-116.72s42.96-116.31,97.27-116.31Zm25.13,69.3c-22.7,0-41.34,16.21-41.34,47.01s18.64,47.42,41.34,47.42,41.34-16.62,41.34-47.42-19.05-47.01-41.34-47.01Z"/><path class="cls-1" d="m1882.97,113.6v278.42h-18.24v-240.32l-106.99,240.32h-14.59l-107.4-240.32v240.32h-18.24V113.6h19.45l113.47,254.51,113.47-254.51h19.05Z"/><path class="cls-1" d="m2147.2,289.08h-190.07c.54,19.72,4.86,36.34,12.97,49.85,8.11,13.51,18.78,23.64,32.02,30.39,13.23,6.76,27.69,10.13,43.36,10.13,21.61,0,39.72-5.33,54.31-16.01,14.59-10.67,23.77-25.19,27.56-43.57h19.05c-4.33,22.43-15.4,40.6-33.23,54.51-17.83,13.92-40.39,20.87-67.68,20.87-20.54,0-38.91-4.59-55.12-13.78-16.21-9.18-28.91-22.35-38.1-39.51-9.19-17.15-13.78-37.21-13.78-60.18s4.52-42.96,13.58-59.98c9.05-17.02,21.68-30.05,37.89-39.11,16.21-9.05,34.71-13.58,55.52-13.58s39.37,4.53,54.91,13.58c15.53,9.05,27.36,21.07,35.46,36.07,8.11,15,12.16,31.14,12.16,48.43,0,9.73-.27,17.02-.81,21.88Zm-27.76-64.44c-7.7-13.51-18.17-23.57-31.41-30.19-13.24-6.62-27.56-9.93-42.96-9.93s-29.65,3.31-42.76,9.93c-13.11,6.62-23.78,16.69-32.02,30.19-8.25,13.51-12.63,29.99-13.17,49.44h172.64c.81-19.45-2.63-35.93-10.33-49.44Z"/><path class="cls-1" d="m2366.45,191.61c16.48,16.08,24.72,39.92,24.72,71.53v128.88h-17.83v-127.66c0-26.2-6.62-46.26-19.86-60.18-13.24-13.91-31.21-20.87-53.9-20.87s-42.76,7.57-56.94,22.7c-14.18,15.13-21.28,37.56-21.28,67.27v118.74h-18.24v-220.06h18.24v46.61c6.21-16.48,16.55-29.11,31-37.89,14.45-8.78,31.14-13.17,50.05-13.17,26.2,0,47.55,8.04,64.03,24.11Z"/><path class="cls-1" d="m2482.76,187.76v145.49c0,16.21,2.97,27.36,8.92,33.43,5.94,6.08,16.48,9.12,31.61,9.12h24.72v16.21h-27.56c-19.19,0-33.3-4.52-42.35-13.58-9.06-9.05-13.58-24.11-13.58-45.19v-145.49h-33.23v-15.8h33.23v-55.93h18.24v55.93h65.25v15.8h-65.25Z"/><path class="cls-1" d="m2637.56,381.48c-16.48-9.18-29.38-22.35-38.7-39.51-9.32-17.15-13.98-37.21-13.98-60.18s4.72-42.62,14.18-59.78c9.45-17.15,22.49-30.26,39.11-39.31,16.62-9.05,35.19-13.58,55.72-13.58s39.04,4.53,55.52,13.58c16.48,9.05,29.38,22.09,38.7,39.11s13.98,37.02,13.98,59.98-4.73,43.03-14.18,60.18c-9.46,17.16-22.49,30.33-39.11,39.51-16.62,9.19-35.19,13.78-55.72,13.78s-39.04-4.59-55.52-13.78Zm100.3-13.17c13.91-7.16,25.06-18.03,33.43-32.62,8.37-14.59,12.56-32.55,12.56-53.9s-4.19-38.91-12.56-53.5c-8.38-14.59-19.45-25.46-33.23-32.62-13.78-7.16-28.64-10.74-44.58-10.74s-30.74,3.58-44.38,10.74c-13.65,7.16-24.66,18.03-33.03,32.62-8.38,14.59-12.56,32.42-12.56,53.5s4.12,39.31,12.36,53.9c8.24,14.59,19.18,25.47,32.83,32.62,13.64,7.16,28.43,10.74,44.38,10.74s30.86-3.58,44.78-10.74Z"/><path class="cls-1" d="m2904.63,180.26c13.78-8.51,31.34-12.77,52.68-12.77v19.05h-6.08c-21.62,0-39.58,6.15-53.9,18.44-14.32,12.3-21.48,32.36-21.48,60.18v126.85h-18.24v-220.06h18.24v45.39c5.4-16.21,15-28.57,28.77-37.08Z"/></g></svg>